<svg xmlns="http://www.w3.org/2000/svg" xmlns:xlink="http://www.w3.org/1999/xlink" version="1.1" x="0px" y="0px" viewBox="0 0 100 100" enable-background="new 0 0 100 100" xml:space="preserve"><g><path d="M67.594,55.171l4.456-2.607l4.382,2.563c0.23,0.136,0.484,0.2,0.733,0.2c0.501,0,0.99-0.259,1.261-0.722   c0.406-0.695,0.173-1.588-0.522-1.994l-4.287-2.509v-5.471l-6.022-3.524l-4.674,2.736l-2.342-1.371l1.14-2   c0.398-0.699,0.154-1.59-0.545-1.987c-0.7-0.398-1.59-0.155-1.987,0.545l-1.123,1.971l-2.349-1.374v-0.018v-6.421v-0.018l2.734-1.6   l0.926,1.626c0.27,0.472,0.761,0.736,1.268,0.736c0.244,0,0.492-0.062,0.72-0.191c0.699-0.398,0.944-1.288,0.545-1.987   l-0.942-1.656l1.987-1.163l4.667,2.73l6.022-3.524v-5.461l4.263-2.495c0.695-0.405,0.929-1.298,0.522-1.993   c-0.407-0.695-1.301-0.928-1.994-0.522l-4.35,2.545l-4.464-2.612l-6.023,3.524v5.225l-2.073,1.215l-0.854-1.497   c-0.398-0.699-1.288-0.943-1.987-0.545s-0.943,1.288-0.544,1.987l0.868,1.526l-2.763,1.617l-5.457-3.193l-0.015-0.009v-3.005h1.778   c0.805,0,1.458-0.652,1.458-1.457c0-0.806-0.652-1.457-1.458-1.457h-1.778v-2.662l4.565-2.671V9.186l-4.565-2.671V1.457   C48.771,0.653,48.118,0,47.313,0c-0.805,0-1.458,0.653-1.458,1.457v5.058L41.29,9.186v7.016l4.565,2.671v2.662h-1.778   c-0.805,0-1.458,0.651-1.458,1.457c0,0.805,0.653,1.457,1.458,1.457h1.778v3.005l-0.015,0.009l-5.457,3.193l-2.413-1.412   l0.918-1.612c0.398-0.699,0.154-1.589-0.545-1.987c-0.699-0.399-1.59-0.154-1.988,0.545l-0.901,1.583L33.1,26.393v-5.266   l-6.023-3.524l-4.499,2.633l-4.384-2.565c-0.694-0.405-1.587-0.173-1.994,0.522c-0.406,0.695-0.172,1.588,0.522,1.993l4.333,2.536   v5.42l6.021,3.524l4.632-2.71l2.303,1.348l-0.976,1.712c-0.398,0.699-0.154,1.589,0.545,1.987c0.228,0.13,0.476,0.191,0.721,0.191   c0.507,0,1-0.265,1.268-0.736l0.958-1.682l2.385,1.395v0.018v6.421v0.018l-2.364,1.383l-0.979-1.718   c-0.398-0.699-1.288-0.943-1.988-0.544c-0.699,0.398-0.943,1.288-0.545,1.987l0.996,1.746l-2.26,1.322l-4.647-2.72l-6.024,3.524   v5.44l-4.379,2.562c-0.694,0.406-0.928,1.299-0.522,1.994c0.272,0.463,0.759,0.722,1.259,0.722c0.25,0,0.503-0.064,0.735-0.2   l4.448-2.604l4.483,2.624l6.022-3.524v-5.245l2.328-1.363l0.948,1.666c0.27,0.472,0.762,0.737,1.269,0.737   c0.245,0,0.492-0.062,0.719-0.192c0.7-0.397,0.944-1.287,0.546-1.987l-0.967-1.696l2.393-1.399l5.458,3.192l0.015,0.01v3.114   h-1.778c-0.805,0-1.457,0.652-1.457,1.457s0.652,1.457,1.457,1.457h1.778v2.552l-4.565,2.672v7.016l4.565,2.671v5.058   c0,0.804,0.653,1.457,1.458,1.457c0.805,0,1.458-0.653,1.458-1.457v-5.058l4.565-2.671v-7.016l-4.565-2.672v-2.552h1.778   c0.805,0,1.458-0.652,1.458-1.457s-0.652-1.457-1.458-1.457h-1.778v-3.114l0.015-0.01l5.457-3.192l2.378,1.391l-0.931,1.634   c-0.398,0.699-0.154,1.589,0.545,1.987c0.228,0.13,0.476,0.191,0.72,0.191c0.507,0,1-0.264,1.269-0.737l0.912-1.603l2.438,1.426   v5.215L67.594,55.171z M64.51,22.799l3.108-1.818l1.579,0.924l1.528,0.895v1.588v2.084l-3.107,1.819l-1.781-1.042l-1.327-0.777   v-1.823V22.799z M44.205,10.857l1.65-0.966l1.458-0.852l1.458,0.852l1.65,0.966v3.672l-1.65,0.966l-1.458,0.853l-1.458-0.853   l-1.65-0.966V10.857z M30.185,26.471l-1.362,0.797l-1.747,1.022l-3.107-1.819v-2.043v-1.629l1.495-0.874l1.612-0.944l3.108,1.818   v1.889V26.471z M30.232,49.951l-3.107,1.818l-1.597-0.935l-1.512-0.884v-1.608v-2.063l3.108-1.818l1.762,1.032l1.345,0.786v1.804   V49.951z M50.42,61.94l-1.65,0.965l-1.458,0.853l-1.458-0.853l-1.65-0.965v-3.672l1.65-0.966l1.458-0.854l1.458,0.854l1.65,0.966   V61.94z M48.771,41.967l-1.458,0.853l-1.458-0.853l-2.586-1.514l-1.443-0.844V37.92v-3.043v-1.688l1.443-0.844l2.586-1.514   l1.458-0.854l1.458,0.854l2.585,1.513l1.444,0.845v1.688v3.043v1.689l-1.443,0.844L48.771,41.967z M64.486,48.137v-1.833   l1.319-0.772l1.788-1.047l3.108,1.819v2.094v1.577l-1.537,0.899l-1.571,0.919l-3.107-1.818V48.137z"></path><path d="M33.717,71.936c0.695-0.406,0.928-1.3,0.521-1.993c-0.406-0.695-1.299-0.93-1.994-0.522l-1.866,1.091l-3.108-1.817v-2.21   c0-0.805-0.652-1.457-1.458-1.457s-1.457,0.652-1.457,1.457v2.21l-3.107,1.817l-1.866-1.091c-0.695-0.407-1.588-0.173-1.994,0.522   c-0.407,0.693-0.173,1.587,0.522,1.993l1.88,1.101v3.672l-1.88,1.1c-0.695,0.407-0.929,1.3-0.522,1.995   c0.271,0.463,0.758,0.721,1.259,0.721c0.25,0,0.503-0.064,0.735-0.199l1.866-1.092l3.107,1.817v2.211   c0,0.805,0.652,1.457,1.457,1.457s1.458-0.652,1.458-1.457V81.05l3.108-1.817l1.866,1.092c0.231,0.135,0.485,0.199,0.735,0.199   c0.501,0,0.988-0.258,1.259-0.721c0.407-0.695,0.173-1.588-0.521-1.995l-1.881-1.1v-3.672L33.717,71.936z M28.92,75.002v1.706   l-1.428,0.835l-0.222,0.131l-1.458,0.853l-1.457-0.853l-0.222-0.131l-1.428-0.835v-1.706v-0.261v-1.705l1.428-0.836l0.222-0.131   l1.457-0.852l1.458,0.853l0.222,0.13l1.428,0.836v1.706V75.002z"></path><path d="M81.865,93.019l-1.881-1.101v-3.672l1.881-1.101c0.694-0.407,0.929-1.299,0.521-1.994   c-0.406-0.694-1.299-0.929-1.994-0.521l-1.865,1.092l-3.108-1.818v-2.21c0-0.805-0.652-1.457-1.457-1.457   c-0.806,0-1.458,0.652-1.458,1.457v2.21l-3.107,1.818L67.53,84.63c-0.695-0.407-1.588-0.173-1.994,0.521   c-0.406,0.695-0.173,1.587,0.522,1.994l1.88,1.101v3.672l-1.88,1.101c-0.695,0.406-0.929,1.299-0.522,1.994   c0.271,0.463,0.759,0.722,1.259,0.722c0.251,0,0.504-0.064,0.735-0.2l1.866-1.093l3.107,1.819v2.21   c0,0.805,0.652,1.457,1.458,1.457c0.805,0,1.457-0.652,1.457-1.457v-2.21l3.108-1.819l1.865,1.093c0.232,0.136,0.484,0.2,0.735,0.2   c0.5,0,0.988-0.259,1.259-0.722C82.794,94.317,82.56,93.425,81.865,93.019z M77.069,91.918l-1.429,0.836l-0.222,0.129l-1.457,0.854   l-1.458-0.854l-0.222-0.129l-1.428-0.836v-1.706v-0.26v-1.706l1.428-0.836l0.222-0.13l1.458-0.853l1.457,0.853l0.222,0.13   l1.429,0.836v1.706v0.26V91.918z"></path></g></svg>