<svg xmlns="http://www.w3.org/2000/svg" xmlns:xlink="http://www.w3.org/1999/xlink" version="1.1" x="0px" y="0px" viewBox="0 0 100 100" enable-background="new 0 0 100 100" xml:space="preserve"><g><path d="M32.148,14.006V11.25c0-0.69-0.56-1.25-1.25-1.25s-1.25,0.561-1.25,1.25v2.755c0.414-0.019,0.832-0.03,1.25-0.03   C31.317,13.976,31.734,13.987,32.148,14.006z"></path><path d="M3.944,40.931c0-0.43,0.012-0.857,0.031-1.281H1.25c-0.69,0-1.25,0.56-1.25,1.25s0.56,1.249,1.25,1.249h2.724   C3.954,41.745,3.944,41.339,3.944,40.931z"></path><path d="M11.001,22.768c0.562-0.615,1.151-1.205,1.768-1.766l-1.951-1.952c-0.488-0.488-1.28-0.488-1.768,0   c-0.487,0.488-0.487,1.28,0,1.768L11.001,22.768z"></path><path d="M10.97,59.061l-1.92,1.92c-0.487,0.488-0.487,1.279,0,1.768c0.244,0.244,0.563,0.366,0.884,0.366s0.641-0.122,0.884-0.366   l1.918-1.918C12.12,60.267,11.531,59.677,10.97,59.061z"></path><path d="M50.797,22.769l1.95-1.951c0.488-0.488,0.488-1.279,0-1.768c-0.487-0.488-1.278-0.488-1.768,0l-1.951,1.952   C49.646,21.563,50.235,22.152,50.797,22.769z"></path><path d="M3.023,30.719l2.526,1.045c0.285-0.788,0.607-1.557,0.962-2.308L3.979,28.41c-0.638-0.263-1.368,0.039-1.633,0.678   C2.082,29.725,2.386,30.456,3.023,30.719z"></path><path d="M43.389,13.979c0.264-0.638-0.04-1.369-0.678-1.632c-0.639-0.263-1.368,0.039-1.633,0.677l-1.053,2.544   c0.788,0.284,1.558,0.604,2.309,0.958L43.389,13.979z"></path><path d="M3.032,51.103c-0.638,0.265-0.939,0.995-0.676,1.634c0.199,0.48,0.665,0.771,1.155,0.771c0.159,0,0.321-0.031,0.478-0.096   l2.507-1.041c-0.353-0.751-0.673-1.521-0.958-2.307L3.032,51.103z"></path><path d="M58.765,30.695c0.638-0.265,0.939-0.996,0.675-1.633c-0.264-0.638-0.995-0.94-1.633-0.676l-2.531,1.05   c0.355,0.751,0.678,1.52,0.965,2.306L58.765,30.695z"></path><path d="M19.442,16.536c0.751-0.354,1.521-0.675,2.307-0.959l-1.054-2.542c-0.265-0.639-0.997-0.94-1.633-0.676   c-0.639,0.264-0.94,0.995-0.677,1.632L19.442,16.536z"></path><path d="M22.002,63.708c0.891-0.766,1.855-1.417,2.878-1.947c-0.376-0.109-0.747-0.225-1.113-0.354   c-0.791-0.276-1.562-0.597-2.309-0.959c-1.82-0.884-3.498-2.015-4.991-3.35c-0.622-0.556-1.212-1.146-1.766-1.769   c-1.326-1.491-2.452-3.164-3.331-4.979c-0.361-0.746-0.682-1.518-0.957-2.309c-0.648-1.863-1.049-3.84-1.163-5.894   c-0.023-0.403-0.035-0.81-0.035-1.218c0-0.431,0.013-0.857,0.039-1.281c0.119-2.044,0.523-4.013,1.174-5.868   c0.276-0.791,0.598-1.561,0.96-2.308c0.883-1.814,2.012-3.487,3.343-4.976c0.556-0.622,1.146-1.211,1.769-1.766   c1.486-1.323,3.155-2.446,4.964-3.323c0.747-0.362,1.518-0.682,2.309-0.958c1.857-0.648,3.83-1.051,5.877-1.167   c0.414-0.023,0.83-0.038,1.25-0.038s0.836,0.014,1.25,0.038c2.041,0.117,4.007,0.517,5.859,1.162   c0.792,0.276,1.563,0.594,2.31,0.956c1.815,0.879,3.489,2.004,4.979,3.332c0.624,0.555,1.214,1.144,1.77,1.766   c1.327,1.484,2.453,3.151,3.335,4.96c0.363,0.746,0.685,1.516,0.963,2.306c0.37,1.057,0.658,2.151,0.862,3.274   c0.888-0.264,1.788-0.484,2.7-0.657c-0.237-1.263-0.574-2.492-1-3.681c-0.282-0.788-0.604-1.558-0.962-2.306   c-1.027-2.143-2.358-4.114-3.937-5.859c-0.559-0.617-1.149-1.207-1.769-1.765c-1.752-1.579-3.73-2.909-5.882-3.933   c-0.75-0.357-1.52-0.677-2.309-0.957c-2.182-0.776-4.506-1.252-6.921-1.374c-0.414-0.021-0.831-0.032-1.25-0.032   c-0.418,0-0.836,0.011-1.25,0.032c-2.422,0.123-4.753,0.601-6.94,1.381c-0.788,0.281-1.559,0.601-2.309,0.958   c-2.144,1.023-4.116,2.349-5.861,3.924c-0.619,0.558-1.21,1.148-1.77,1.765c-1.583,1.749-2.917,3.727-3.945,5.878   c-0.358,0.749-0.679,1.519-0.96,2.308c-0.781,2.184-1.261,4.51-1.386,6.928c-0.022,0.424-0.034,0.851-0.034,1.281   c0,0.408,0.011,0.814,0.03,1.218c0.12,2.428,0.597,4.763,1.377,6.956c0.281,0.789,0.6,1.56,0.956,2.309   c1.025,2.15,2.354,4.128,3.933,5.878c0.558,0.619,1.147,1.21,1.766,1.77c1.753,1.586,3.736,2.923,5.893,3.952   C20.922,63.264,21.458,63.494,22.002,63.708z"></path><path d="M80.715,49.507c-0.023,0-0.046,0.001-0.069,0.001c0,0-5.215,0.053-8.94,3.207c0,0,2.034-4.16,6.962-5.807   c-4.53-5.209-11.205-8.506-18.65-8.506c-1.626,0-3.214,0.158-4.751,0.458c-0.93,0.182-1.841,0.414-2.729,0.696   c-9.13,2.896-15.962,10.954-17.071,20.745c0.088,0.05,0.176,0.1,0.269,0.152c0.597,0.342,1.148,0.736,1.657,1.166   c0.805,0.678,1.501,1.44,2.095,2.206c0.566,0.73,1.039,1.464,1.422,2.129c0.868,1.507,1.275,2.668,1.275,2.668   c-0.486-0.974-1.105-1.79-1.771-2.474c-0.758-0.778-1.578-1.382-2.333-1.841c-1.514-0.92-2.772-1.261-2.772-1.261   c-0.992-0.282-2.033-0.444-3.105-0.474c-0.118-0.003-0.236-0.006-0.354-0.006c-0.358,0-0.713,0.016-1.064,0.045   c-2.157,0.18-4.159,0.902-5.871,2.029c-3.43,2.258-5.693,6.142-5.693,10.556c0,6.974,5.653,12.629,12.629,12.629h48.869   c10.581,0,19.159-8.577,19.159-19.16C99.874,58.085,91.296,49.507,80.715,49.507z"></path></g></svg>