<svg xmlns="http://www.w3.org/2000/svg" xmlns:xlink="http://www.w3.org/1999/xlink" version="1.1" x="0px" y="0px" viewBox="0 0 100 100" enable-background="new 0 0 100 100" xml:space="preserve"><g><path d="M87.914,27.748c-2.284-1.504-4.933-2.418-7.657-2.646c-0.464-0.039-0.931-0.058-1.385-0.058   c-0.165,0-0.32,0.003-0.461,0.007c-0.007,0-0.013,0-0.019,0C76.893,14,69.124,4.74,58.45,1.353   c-1.045-0.331-2.124-0.607-3.203-0.817C53.419,0.18,51.546,0,49.679,0c-8.39,0-16.362,3.636-21.874,9.976l-1.394,1.602   c-5.52,0.425-10.652,2.779-14.608,6.735C7.416,22.699,5,28.531,5,34.736c0,6.205,2.416,12.037,6.803,16.424   c4.389,4.387,10.22,6.803,16.424,6.803h50.646c9.076,0,16.461-7.384,16.461-16.46C95.333,35.949,92.559,30.807,87.914,27.748z    M78.872,54.59H28.227c-10.966,0-19.854-8.887-19.854-19.854c0-10.966,8.889-19.855,19.854-19.855c0.024,0,0.049,0.001,0.073,0.001   c0,0,5.403,0.056,9.264,3.323c0,0-2.107-4.31-7.213-6.016c4.693-5.4,11.61-8.817,19.328-8.817c1.684,0,3.329,0.164,4.923,0.475   c0.963,0.187,1.906,0.429,2.828,0.721c9.461,3.003,16.542,11.352,17.693,21.5c-0.093,0.05-0.185,0.103-0.28,0.157   c-0.619,0.354-1.189,0.764-1.717,1.208c-0.834,0.703-1.556,1.494-2.173,2.287c-0.586,0.757-1.075,1.517-1.471,2.207   c-0.9,1.561-1.322,2.765-1.322,2.765c0.504-1.008,1.146-1.856,1.835-2.564c0.786-0.806,1.635-1.432,2.419-1.908   c1.568-0.953,2.873-1.306,2.873-1.306c1.028-0.292,2.105-0.46,3.219-0.491c0.121-0.003,0.243-0.006,0.366-0.006   c0.372,0,0.739,0.017,1.104,0.047c2.234,0.186,4.31,0.934,6.085,2.103c3.554,2.34,5.9,6.365,5.9,10.938   C91.961,48.731,86.101,54.59,78.872,54.59z"></path><path d="M20.391,62.742c-0.93,0-1.686,0.755-1.686,1.687v7.799c0,0.931,0.756,1.686,1.686,1.686c0.933,0,1.686-0.755,1.686-1.686   v-7.799C22.076,63.497,21.323,62.742,20.391,62.742z"></path><path d="M50.167,62.742c-0.932,0-1.687,0.755-1.687,1.687v7.799c0,0.931,0.755,1.686,1.687,1.686s1.685-0.755,1.685-1.686v-7.799   C51.852,63.497,51.099,62.742,50.167,62.742z"></path><path d="M50.167,88.603c-0.932,0-1.687,0.756-1.687,1.687v7.799c0,0.932,0.755,1.687,1.687,1.687s1.685-0.755,1.685-1.687v-7.799   C51.852,89.358,51.099,88.603,50.167,88.603z"></path><path d="M35.228,70.542c-0.931,0-1.687,0.756-1.687,1.686v7.799c0,0.932,0.756,1.687,1.687,1.687c0.93,0,1.687-0.755,1.687-1.687   v-7.799C36.914,71.298,36.157,70.542,35.228,70.542z"></path><path d="M26.123,80.804c-0.932,0-1.685,0.755-1.685,1.687v7.799c0,0.931,0.753,1.686,1.685,1.686s1.686-0.755,1.686-1.686V82.49   C27.809,81.559,27.055,80.804,26.123,80.804z"></path><path d="M63.888,70.542c-0.932,0-1.687,0.756-1.687,1.686v7.799c0,0.932,0.755,1.687,1.687,1.687c0.931,0,1.686-0.755,1.686-1.687   v-7.799C65.573,71.298,64.818,70.542,63.888,70.542z"></path><path d="M71.979,84.703c-0.932,0-1.686,0.755-1.686,1.687v7.8c0,0.931,0.754,1.686,1.686,1.686c0.931,0,1.687-0.755,1.687-1.686   v-7.8C73.666,85.458,72.91,84.703,71.979,84.703z"></path><path d="M78.213,62.742c-0.931,0-1.687,0.755-1.687,1.687v7.799c0,0.931,0.756,1.686,1.687,1.686c0.932,0,1.686-0.755,1.686-1.686   v-7.799C79.898,63.497,79.145,62.742,78.213,62.742z"></path></g></svg>